# xmcd CD database file
# Copyright (C) 1996 Ti Kan
#
# Track frame offsets:
#	150
#	19085
#	37052
#	56232
#	74675
#	94845
#	115247
#	129060
#	150160
#
# Disc length: 2350 seconds
#
# Revision: 1
# Processed by: cddbd v1.4b41PL1 Copyright (c) Steve Scherf et al.
# Submitted via: EasyCD 2.21 - (C) 1996 Greg Leichner
#
DISCID=73092c09
DTITLE=Earl Thomas - Stronger Than The Flame
DYEAR=1900
DGENRE=
TTITLE0=Lead A Horse To Water
TTITLE1=Funky
TTITLE2=Can't Be Satisfied
TTITLE3=Stronger Than The Flame
TTITLE4=All About Love
TTITLE5=Funkier Than A Mosquito's Tweeter
TTITLE6=Gotta Get Home Tonight
TTITLE7=Better To Have Loved And Lost
TTITLE8=Something Fine
EXTD=
EXTT0=
EXTT1=
EXTT2=
EXTT3=
EXTT4=
EXTT5=
EXTT6=
EXTT7=
EXTT8=
PLAYORDER=
